PathFileType	3	(X/Y/Z)	D:\minhoCalibration\240510\subject3_KPNP\preferred\preferred14.trc
DataRate	CameraRate	NumFrames	NumMarkers	Units	OrigDataRate	OrigDataStartFrame	OrigNumFrames
200.0	200.0	30	10	mm	200.0	200	142	
Frame#	Time	Left_Ankle_Outer1			Left_Ankle_Inner1			Left_Knee_Outer1			Left_Knee_Inner1			Left_Wrist1			Right_Wrist1			Right_Knee_Inner1			Right_Knee_Outer1			Right_Ankle_Inner1			Right_Ankle_Outer1			
		X1	Y1	Z1	X2	Y2	Z2	X3	Y3	Z3	X4	Y4	Z4	X5	Y5	Z5	X6	Y6	Z6	X7	Y7	Z7	X8	Y8	Z8	X9	Y9	Z9	X10	Y10	Z10	
200	0.99	-331.10815	104.77838	-509.40274	-389.06671	109.78278	-511.9617	-290.18051	527.30164	-380.17844	-400.58929	525.89655	-378.48453	-268.31143	852.90118	-567.30499	-579.63171	885.58063	-739.79883	-554.97571	439.71313	-817.27771	-621.82147	505.30499	-877.46515	-437.35028	118.60991	-1055.3821	-492.23169	161.29295	-1129.3308
201	0.995	-330.9379	103.69174	-508.20465	-387.1572	110.08949	-511.48029	-288.21805	526.48578	-377.43768	-398.40567	525.42871	-374.87024	-265.08734	855.97711	-563.42676	-580.15375	887.31012	-729.96191	-558.67773	439.94583	-809.34467	-627.77649	507.20395	-867.02222	-440.04846	125.0921	-1052.3698	-496.4906	167.87582	-1125.5275
202	1	-327.91409	104.45138	-507.81113	-385.4162	110.24381	-511.16229	-286.28748	525.47925	-374.75873	-396.03317	524.72778	-371.63281	-261.54529	859.27014	-559.75922	-580.44147	889.20459	-720.01062	-564.63342	441.97012	-797.88348	-634.03595	509.31012	-856.28369	-444.47803	131.15996	-1049.2351	-500.93878	174.65916	-1121.0023
203	1.005	-327.36523	103.5697	-506.58231	-383.56973	110.2729	-510.72418	-284.15735	524.44623	-372.25632	-393.85721	523.88062	-368.50043	-258.13525	862.53162	-556.02722	-580.49841	891.32874	-709.77026	-570.38959	443.20453	-786.88678	-640.52734	511.63544	-844.88409	-448.06812	138.23662	-1045.384	-506.81985	181.86172	-1116.3535
204	1.01	-324.8609	103.80483	-506.11545	-381.48712	110.43246	-510.46484	-282.00165	523.36371	-369.87494	-391.43039	522.50427	-365.97791	-254.51707	865.70929	-552.46051	-580.42981	893.60089	-699.48206	-576.38434	444.23743	-776.00616	-647.25256	514.20917	-832.79108	-452.7583	145.46428	-1041.0258	-512.47205	188.95277	-1110.537
205	1.015	-323.06424	103.63259	-505.26746	-379.60477	110.61059	-510.0206	-279.71463	522.25818	-367.78479	-389.08923	521.26569	-363.50983	-250.80646	868.79871	-549.03223	-580.14441	896.05383	-689.10608	-582.86749	445.30164	-764.16089	-653.92474	516.93854	-820.02423	-458.42023	153.12326	-1036.4993	-519.02295	196.93414	-1104.5564
206	1.02	-321.20551	103.70921	-504.48401	-377.66605	110.94493	-509.61893	-277.42963	521.37122	-365.71585	-386.5863	519.91364	-361.62265	-247.19392	871.68799	-545.65222	-579.66241	898.71771	-678.82806	-589.34308	446.35394	-751.63049	-660.43774	519.82458	-806.67114	-463.64563	161.36775	-1031.1409	-526.31848	205.297	-1097.5963
207	1.025	-319.33966	104.00505	-503.81531	-375.93869	111.41367	-509.23859	-274.97202	520.5365	-363.72763	-383.81012	519.00848	-359.70731	-243.47551	874.49823	-542.42456	-579.04541	901.60962	-668.44781	-596.48035	447.77567	-737.67291	-666.72992	522.81891	-792.58099	-468.63153	170.54594	-1024.8995	-534.07159	214.10165	-1089.7881
208	1.03	-317.93436	104.25081	-503.12906	-374.47336	111.92194	-508.72928	-272.6087	519.92377	-361.80121	-380.99951	518.13208	-358.08627	-239.70284	877.23718	-539.58282	-578.06128	904.81274	-658.5047	-603.06146	449.4025	-723.02264	-672.87042	525.8985	-777.48962	-474.43582	179.97066	-1018.3748	-542.76868	223.6218	-1081.4175
209	1.035	-316.50647	104.50856	-502.56384	-373.0589	112.58452	-508.3161	-269.89999	519.54431	-360.19891	-377.90811	517.42175	-356.56216	-235.59244	879.85468	-537.1427	-577.34277	908.01807	-648.22626	-609.29779	451.44064	-707.28699	-678.70715	529.06519	-761.61188	-480.34262	190.19417	-1011.5927	-551.60461	233.14339	-1072.1688
210	1.04	-316.09256	104.53613	-501.74658	-371.97165	113.17579	-507.75583	-267.22437	519.31299	-358.79727	-375.22903	517.4491	-355.30463	-231.34955	882.46252	-534.89471	-576.40173	911.56097	-638.30139	-614.84821	453.7626	-690.63892	-684.21625	532.2793	-744.88654	-486.3728	201.01874	-1004.2229	-560.68762	242.51888	-1062.5737
211	1.045	-314.58508	105.09412	-501.47409	-370.93918	113.94738	-507.32565	-264.36227	519.29688	-357.68668	-371.90366	517.17426	-353.95148	-227.46082	884.80115	-532.77069	-575.16602	915.35822	-628.12872	-619.60254	456.37354	-672.9552	-689.32727	535.53925	-727.37836	-492.29056	212.72633	-996.20776	-569.89124	252.12019	-1051.3141
212	1.05	-313.60202	105.6109	-501.02679	-370.77747	114.33521	-506.07611	-261.36121	519.44958	-357.08817	-367.75446	517.46545	-352.36209	-223.11592	887.17969	-531.17169	-573.7868	919.48822	-618.04987	-623.18323	459.26428	-654.6228	-693.73541	538.43738	-708.18628	-498.12097	225.36691	-987.38324	-579.5531	262.38031	-1039.8386
213	1.055	-312.79373	106.22272	-500.6969	-369.35507	115.28947	-506.45273	-258.2186	519.7522	-356.81732	-364.38455	518.36401	-351.1843	-218.96114	889.47961	-530.14569	-572.21857	923.41876	-607.99243	-625.86774	462.33044	-635.87933	-698.00739	541.62628	-688.18591	-503.9664	239.09029	-977.70599	-589.02551	272.39832	-1027.478
214	1.06	-312.28082	106.59227	-500.35025	-368.84201	116.11628	-505.72592	-254.87062	520.15729	-357.06094	-360.62094	519.04865	-350.14725	-214.49294	891.68579	-529.15472	-570.14941	927.85382	-597.90015	-627.41699	465.88037	-616.85138	-702.31879	545.40009	-667.90021	-508.70181	254.43834	-967.77942	-598.1153	282.76825	-1013.892
215	1.065	-311.66763	107.1545	-499.9552	-368.24823	117.00769	-505.28265	-251.49123	520.69519	-357.74274	-356.8006	520.01636	-349.25931	-210.27979	893.77899	-528.45386	-568.177	932.2403	-587.56293	-628.11926	469.7652	-597.62927	-705.98425	549.53589	-647.5174	-514.93201	270.12381	-956.2486	-606.9671	294.42136	-998.90717
216	1.07	-311.06506	107.84444	-499.69461	-367.78653	118.02917	-504.50571	-248.03061	521.30731	-358.82666	-352.89566	521.02423	-348.50528	-205.92809	895.91608	-528.28326	-565.54541	937.10083	-577.35162	-628.02692	473.80994	-577.80505	-709.74542	553.29169	-624.44238	-519.7395	286.48816	-943.77277	-615.09338	307.41641	-983.47443
217	1.075	-310.81369	108.49509	-499.30902	-367.34921	119.02604	-503.92633	-244.60051	521.98822	-360.32355	-349.74628	522.55286	-346.95312	-201.62302	897.95319	-528.66809	-563.40155	942.00433	-566.37695	-626.89795	478.51291	-558.92651	-712.74561	557.86127	-601.46057	-525.69281	302.69867	-929.52588	-622.28967	322.18311	-968.43457
218	1.08	-310.41998	109.21415	-498.91391	-367.06885	120.25517	-503.08173	-241.08861	522.72736	-362.05011	-344.7757	523.16351	-347.86951	-197.54567	899.88354	-529.52325	-559.89014	947.29028	-556.48077	-625.40192	483.45886	-538.61401	-715.38965	563.31201	-577.78131	-531.96344	318.45508	-913.81067	-629.2688	337.68637	-951.73389
219	1.085	-309.67023	110.21928	-498.56131	-366.68716	121.36888	-502.31577	-237.66005	523.56598	-364.08447	-340.00623	524.80115	-347.61191	-193.5941	901.81213	-530.98334	-556.6781	952.50604	-545.94049	-623.74054	489.20551	-518.53516	-717.25226	569.66711	-553.2879	-538.33832	333.82968	-896.92322	-636.19257	353.79321	-933.71478
220	1.09	-309.63928	110.92783	-498.06451	-366.52795	122.80957	-501.43771	-234.43878	524.45349	-366.17517	-336.28229	526.013	-347.66702	-189.4771	903.92218	-533.22211	-552.44775	957.98346	-535.87671	-621.75562	495.53076	-498.10504	-718.35205	577.03314	-528.38861	-545.17218	348.70258	-879.13696	-642.82458	370.84772	-914.91809
221	1.095	-309.14398	112.28559	-497.5983	-366.45367	124.30509	-500.47766	-231.02112	525.50903	-368.56079	-332.65308	527.28424	-347.85785	-185.38181	906.07867	-535.90149	-547.7713	963.99384	-526.15936	-619.40692	502.36554	-477.48636	-718.63928	585.34802	-502.79105	-552.01324	363.43588	-860.75378	-650.2417	388.55234	-893.99915
222	1.1	-308.91531	113.46456	-497.05676	-366.32376	125.87467	-499.33746	-227.65756	526.71033	-370.99664	-328.78812	528.77478	-348.34714	-181.84601	908.0733	-538.88055	-543.19891	969.64276	-516.59344	-616.80078	509.99619	-456.44571	-718.15155	594.40399	-476.7912	-559.34967	378.38718	-841.63647	-656.74359	406.80695	-874.00183
223	1.105	-309.04611	114.52894	-496.37204	-366.35211	127.58105	-498.12506	-224.61351	527.98254	-373.30859	-325.00534	530.4303	-348.91006	-177.88705	910.27417	-542.75677	-537.01715	976.33868	-507.21317	-613.97888	518.42767	-434.81302	-716.69006	604.53033	-450.55966	-567.65686	393.24335	-822.04944	-665.40454	424.25867	-851.40497
224	1.11	-308.81857	116.05151	-495.73151	-366.41626	129.35886	-496.73685	-221.43411	529.39825	-375.78217	-321.58234	531.76007	-349.65164	-175.09206	912.34692	-546.59143	-531.46289	982.85846	-498.6152	-610.8244	527.84155	-412.87189	-714.25769	615.6272	-424.39401	-575.63354	408.74878	-802.18188	-673.98383	442.99551	-827.81348
225	1.115	-308.94043	117.51241	-494.99673	-366.54828	131.19182	-495.23941	-218.21741	530.89716	-378.23334	-317.55899	533.94952	-350.34048	-172.71404	914.172	-550.91931	-525.72839	989.51636	-490.5376	-607.25378	538.27539	-389.7926	-710.86444	627.81152	-398.3645	-584.11639	424.48343	-782.18707	-682.09814	460.7171	-805.74451
226	1.12	-309.24658	118.86552	-494.1846	-366.70297	133.25601	-493.61063	-214.93155	532.52167	-380.71625	-314.06607	535.7569	-351.15018	-169.01526	916.36206	-556.23694	-519.67883	996.59888	-483.51196	-603.32556	549.80237	-366.64957	-706.51575	640.91583	-372.30136	-593.96155	440.36298	-761.02875	-692.40961	479.56082	-779.04419
227	1.125	-309.34247	120.45997	-493.47266	-366.9068	135.19064	-491.88113	-211.58043	534.31256	-383.42712	-309.97784	538.12823	-352.013	-166.89519	918.30786	-561.5766	-512.66846	1002.9757	-476.49152	-598.88831	562.54126	-343.16208	-701.19336	655.20599	-346.81448	-603.62659	456.68994	-739.75391	-701.71942	496.96033	-754.35638
228	1.13	-309.7149	121.8597	-492.66711	-367.19153	137.11623	-490.04346	-208.42401	536.03766	-386.17575	-306.13144	540.42664	-352.75363	-164.47487	920.02014	-567.33331	-506.52533	1010.7896	-469.99567	-593.74658	576.47943	-320.03671	-694.7713	670.63977	-321.96021	-613.90155	473.17038	-717.79968	-711.78412	514.87274	-727.97516
229	1.135	-310.06543	123.11759	-491.80475	-367.48178	139.29575	-488.04132	-205.30272	537.8045	-389.12183	-301.89893	542.84735	-353.64087	-162.24338	921.63812	-573.36029	-499.8956	1017.7244	-464.58066	-587.87561	591.15106	-296.84903	-687.56415	686.62622	-297.77057	-624.79022	489.52579	-694.93567	-722.16687	532.53033	-700.69489
